# xmcd
#
# Track frame offsets: 
#        150
#        18982
#        40582
#        57832
#        76357
#        108232
#        131482
#        150082
#
# Disc length: 2073 seconds
#
# Revision: 0
# Processed by: cddbd v1.5.2PL0 Copyright (c) Steve Scherf et al.
# Submitted via: ExactAudioCopy v0.99pb5
#
DISCID=4e081708
DTITLE=Cream  - Trinity (Mid Valley 067)  
DYEAR=1900
DGENRE=
TTITLE0=Tales of Brave Ulysses
TTITLE1=World of Pain
TTITLE2=Outside Woman Blues
TTITLE3=Dance the Night Away
TTITLE4=Sleepy Time Time
TTITLE5=Sweet Wine
TTITLE6=Rollin' and Tumblin'
TTITLE7=Rollin' and Tumblin'
EXTD=
EXTT0=
EXTT1=
EXTT2=
EXTT3=
EXTT4=
EXTT5=
EXTT6=
EXTT7=
PLAYORDER=
